# xmcd
#
# Track frame offsets: 
#        150
#        14773
#        40624
#        71451
#        90833
#        115700
#        131374
#        161339
#        182781
#        197504
#        220434
#        249329
#
# Disc length: 3699 seconds
#
# Revision: 0
# Processed by: cddbd v1.5.2PL0 Copyright (c) Steve Scherf et al.
# Submitted via: ExactAudioCopy v0.99pb5
#
DISCID=950e710c
DTITLE=Gregg Wright - King of the Rockin' Blues!
DYEAR=2009
DGENRE=Blues
TTITLE0=G'on Wit'cha Bad Self
TTITLE1=Cry Myself A River
TTITLE2=Plenty of No Money
TTITLE3=Come and Get It (Part 1)
TTITLE4=I'm My Own Boss Man
TTITLE5=King of the Rockin' Blues!
TTITLE6=Between Heaven and Hell (Slight Return)
TTITLE7=Bayou Moon
TTITLE8=Come and Get It (Part 2)
TTITLE9=The Politics of Fear
TTITLE10=Tricked By the Devil
TTITLE11=Brick By Brick
EXTD=
EXTT0=
EXTT1=
EXTT2=
EXTT3=
EXTT4=
EXTT5=
EXTT6=
EXTT7=
EXTT8=
EXTT9=
EXTT10=
EXTT11=
PLAYORDER=
